PathFileType	4	(X/Y/Z)	..\data\2014014\dynamic\2014014_C5_04.trc
DataRate	CameraRate	NumFrames	NumMarkers	Units	OrigDataRate	OrigDataStartFrame	OrigNumFrames
100.000000	100.000000	4	52	mm	100.000000	19	157
Frame#	Time	L_IAS			L_IPS			R_IPS			R_IAS			L_FTC			L_FLE			L_FME			L_FAX			L_TTC			L_FAL			L_TAM			L_FCC			L_FM1			L_FM2			L_FM5			R_FTC			R_FLE			R_FME			R_FAX			R_TTC			R_FAL			R_TAM			R_FCC			R_FM1			R_FM2			R_FM5			CV7			TV10			SXS			SJN			L_SIA			L_SRS			L_SAA			L_SAE			L_HLE			L_HME			L_UOA			L_RSP			L_UHE			L_HM2			L_HM5			R_SIA			R_SRS			R_SAA			R_SAE			R_HLE			R_HME			R_UOA			R_RSP			R_UHE			R_HM2			R_HM5			
		X1	Y1	Z1	X2	Y2	Z2	X3	Y3	Z3	X4	Y4	Z4	X5	Y5	Z5	X6	Y6	Z6	X7	Y7	Z7	X8	Y8	Z8	X9	Y9	Z9	X10	Y10	Z10	X11	Y11	Z11	X12	Y12	Z12	X13	Y13	Z13	X14	Y14	Z14	X15	Y15	Z15	X16	Y16	Z16	X17	Y17	Z17	X18	Y18	Z18	X19	Y19	Z19	X20	Y20	Z20	X21	Y21	Z21	X22	Y22	Z22	X23	Y23	Z23	X24	Y24	Z24	X25	Y25	Z25	X26	Y26	Z26	X27	Y27	Z27	X28	Y28	Z28	X29	Y29	Z29	X30	Y30	Z30	X31	Y31	Z31	X32	Y32	Z32	X33	Y33	Z33	X34	Y34	Z34	X35	Y35	Z35	X36	Y36	Z36	X37	Y37	Z37	X38	Y38	Z38	X39	Y39	Z39	X40	Y40	Z40	X41	Y41	Z41	X42	Y42	Z42	X43	Y43	Z43	X44	Y44	Z44	X45	Y45	Z45	X46	Y46	Z46	X47	Y47	Z47	X48	Y48	Z48	X49	Y49	Z49	X50	Y50	Z50	X51	Y51	Z51	X52	Y52	Z52	

20	0.19	-984.585876464844	990.1241455078127	105.8725128173827	-1200.85302734375	1003.654113769531	169.8992614746093	-1205.155639648438	988.987976074219	274.7491455078124	-1008.224548339844	961.1452636718752	356.7137756347656	-1045.284423828125	902.4180297851565	28.49687767028797	-944.9905395507815	500.0952758789064	96.13944244384757	-968.6986083984377	495.0896911621095	229.4779205322265	-952.7403564453127	435.6378784179689	93.34534454345693	-895.0159301757815	435.3229370117189	157.5792541503905	-941.8303222656252	64.67321777343751	138.3447875976562	-931.3372802734377	99.95861816406253	235.6482849121093	-1002.329284667969	22.66570091247559	192.1185150146484	-805.3126220703127	20.09619140625	244.3776092529297	-786.4473266601565	38.88414764404298	188.0533599853515	-834.6534423828127	18.32419967651368	126.7978363037109	-1083.819580078125	854.1490478515627	407.4500732421875	-1098.635009765625	449.8072509765626	393.98046875	-1053.3232421875	438.5063476562501	268.8976440429687	-1147.619873046875	423.1539611816407	399.1183776855469	-1100.813842773438	370.6370544433594	349.8072814941406	-1455.0244140625	230.7150115966797	347.7154235839843	-1406.252685546875	220.4259490966797	257.4185180664061	-1497.742065429688	253.7499694824219	283.6869201660155	-1432.88623046875	72.97341156005861	244.2257232666014	-1418.590454101563	72.72253417968751	299.4688415527343	-1453.505493164063	93.66216278076173	356.1012878417968	-1140.750854492188	1518.187744140625	219.488067626953	-1244.3154296875	1275.646118164063	222.7094726562499	-967.0164184570315	1238.735595703125	230.2684020996093	-1016.335021972656	1422.849487304688	232.4531249999999	-1259.669555664063	1303.483276367188	116.8281249999999	-1214.35888671875	1446.52099609375	114.9971618652343	-1174.55419921875	1445.428955078125	52.05020523071276	-1125.537719726563	1440.609619140625	25.02878570556627	-1166.688720703125	1107.045288085938	-70.56703186035172	-1198.298583984375	1094.59033203125	16.44432830810533	-1206.197021484375	1090.5078125	-39.52083969116227	-1106.275756835938	841.159606933594	-38.04449462890639	-1178.8974609375	852.043395996094	-89.16824340820328	-1089.299438476563	754.2772216796876	-56.7953605651857	-1195.13525390625	769.4937744140627	-95.36293029785172	-1264.527954101563	1302.975463867188	336.4991149902343	-1210.744140625	1446.721313476563	345.8796081542968	-1174.152099609375	1437.142333984375	414.6246337890624	-1127.977783203125	1434.876098632813	436.4897155761719	-1152.238647460938	1107.962036132813	538.7025146484375	-1168.530517578125	1084.366943359375	439.1498107910156	-1192.41015625	1080.9521484375	507.0322875976562	-1016.825744628907	875.1966552734377	505.7184753417969	-1085.046142578125	866.5062255859377	568.1668701171875	-970.1696166992191	793.7501220703127	535.0773315429688	-1076.64501953125	771.136901855469	570.7642822265625	
21	0.2	-971.6810302734377	992.211364746094	105.212432861328	-1187.768432617188	1005.895080566406	170.6775054931639	-1191.706787109375	990.4342041015627	275.441192626953	-994.4634399414065	962.436706542969	356.1908874511718	-1033.773071289063	904.4257812500002	27.87550354003894	-939.564880371094	500.3304138183595	95.5186767578124	-962.9893798828127	495.5935668945314	228.8353881835937	-948.522644042969	435.8892822265626	92.86737060546865	-890.051940917969	434.7142028808595	156.6278533935546	-942.235046386719	64.9093475341797	138.516143798828	-931.1206665039065	100.1981277465821	235.7018890380859	-1002.420837402344	22.58405876159668	192.1668395996093	-805.5690917968752	20.41427040100098	244.0979614257812	-786.5181884765627	39.30612564086915	187.6920928955078	-834.882507324219	18.85034561157227	126.3680953979491	-1067.970703125	854.796325683594	407.0010681152344	-1068.895629882813	450.467254638672	395.2360229492188	-1024.876220703125	440.4282836914064	269.4833679199218	-1117.137817382813	424.061004638672	400.4710693359375	-1071.335205078125	372.0251770019532	349.6540222167968	-1427.4794921875	237.155990600586	349.1379089355468	-1379.563354492188	226.5380096435547	258.355010986328	-1471.050048828125	260.1181335449219	285.5483398437499	-1406.285034179688	77.89541625976564	247.4469757080077	-1391.718017578125	78.39238739013673	302.3992309570311	-1426.246704101563	101.0788726806641	358.7206115722655	-1126.5009765625	1520.09326171875	218.5474548339843	-1230.439575195313	1277.691650390625	222.5982208251952	-953.3787841796877	1240.345581054688	230.4050598144531	-1002.214416503906	1424.648803710938	232.057144165039	-1245.1572265625	1305.290405273438	115.9632720947264	-1199.876220703125	1448.106201171875	113.7392120361327	-1159.764770507813	1446.7783203125	51.00156784057604	-1110.729370117188	1441.853637695313	24.23731040954577	-1147.912475585938	1107.882202148438	-71.97692108154313	-1180.417846679688	1094.93701171875	14.78991508483873	-1187.485595703125	1090.58837890625	-41.34447097778335	-1082.2216796875	843.291931152344	-38.59673690795913	-1154.478393554688	852.5675048828127	-90.34290313720719	-1063.1220703125	756.9473876953126	-57.34713745117202	-1168.726684570313	769.7654418945315	-96.59500885009783	-1250.787353515625	1305.338745117188	335.8822326660155	-1196.80810546875	1449.025390625	345.0303649902343	-1160.311279296875	1439.49658203125	413.8773193359375	-1114.217163085938	1437.14697265625	435.8698120117188	-1139.782592773438	1109.9580078125	537.4157104492188	-1155.892456054688	1086.830078125	437.7440795898438	-1180.011474609375	1083.436767578125	505.4258422851562	-1007.731140136719	875.250915527344	505.0098571777344	-1076.42138671875	867.617614746094	567.1571044921875	-962.5407104492191	793.0550537109377	534.5131225585938	-1069.424438476563	772.1460571289065	569.7928466796875	
22	0.21	-958.9949340820315	994.2158203125002	104.5835647583007	-1174.768798828125	1008.142517089844	171.4455261230468	-1178.341552734375	992.1795043945315	276.0718383789061	-980.8430786132815	964.198913574219	355.7954101562499	-1022.54541015625	906.2412109375002	27.34840393066395	-935.0532226562502	500.3645629882814	94.94680786132803	-957.6907958984377	495.9909973144532	228.3184661865234	-945.2408447265627	435.9984130859376	92.46575164794912	-885.7581176757815	433.9917297363282	155.4812622070312	-942.8001708984377	65.02837371826173	138.715347290039	-930.9996337890627	100.3315734863282	235.7484130859374	-1002.598937988281	22.42363357543946	192.3139953613281	-805.8470458984377	20.86047554016114	243.7781829833984	-786.7544555664065	39.75600814819337	187.2900390624999	-835.1799926757815	19.2209644317627	126.0023345947265	-1052.373901367188	856.0996704101565	406.65185546875	-1039.516723632813	452.1275939941407	396.1161193847656	-996.7940063476565	443.3838500976564	269.6735839843749	-1086.99267578125	425.7593994140626	401.3344116210938	-1041.826904296875	374.3128967285157	349.2110595703124	-1398.9365234375	242.1079406738282	350.2295532226561	-1351.676635742188	231.5497436523438	258.9921874999999	-1443.509155273438	264.4387207031251	286.964385986328	-1376.52880859375	81.95961761474611	250.2228546142577	-1361.8916015625	83.50767517089845	304.9647827148436	-1396.389526367188	107.1349639892578	360.904327392578	-1112.352661132813	1522.154541015625	217.7454071044921	-1216.670776367188	1279.921142578125	222.5709533691405	-939.8271484375002	1242.106323242188	230.665298461914	-988.2194824218752	1426.569091796875	231.7882843017578	-1230.822631835938	1307.3212890625	115.2148284912108	-1185.516235351563	1449.880493164063	112.6071853637694	-1145.088989257813	1448.3388671875	50.09424972534167	-1095.989990234375	1443.295288085938	23.58878517150866	-1129.126098632813	1108.966552734375	-73.29016876220719	-1162.784790039063	1095.58251953125	13.33458709716783	-1168.754272460938	1090.884521484375	-43.0988159179689	-1057.959350585938	845.8470458984377	-38.99357223510756	-1129.8369140625	853.4316406250002	-91.37324523925797	-1036.60693359375	760.1514282226564	-57.80783462524428	-1141.949340820313	770.4208984375002	-97.73121643066423	-1237.204711914063	1307.838623046875	335.351104736328	-1183.030395507813	1451.468383789063	344.2833251953124	-1146.652465820313	1441.978759765625	413.22412109375	-1100.633056640625	1439.567993164063	435.3660888671875	-1127.418823242188	1112.07763671875	536.2164916992188	-1143.418579101563	1089.450439453125	436.4334716796875	-1167.684692382813	1086.049926757813	503.8923645019531	-998.7504272460941	875.4946899414065	504.2362060546875	-1067.861328125	868.914245605469	566.1064453125	-955.0181884765628	792.5563964843752	533.8130493164062	-1062.264770507813	773.3552246093752	568.75732421875	
23	0.22	-946.4777832031252	996.1184692382815	103.9552536010741	-1161.798461914063	1010.38134765625	172.1756896972655	-1164.993530273438	994.198913574219	276.6341857910155	-967.289001464844	966.413024902344	355.4714965820312	-1011.543579101563	907.8580322265627	26.90502929687488	-931.265075683594	500.249481201172	94.44964599609365	-952.667907714844	496.3070678710939	227.9471893310546	-942.6793212890627	436.0124511718751	92.15885162353506	-882.0090332031252	433.1918334960939	154.2111358642577	-943.4428710937502	65.04370117187501	138.924835205078	-930.9253540039065	100.3630447387696	235.7801361083984	-1002.835144042969	22.22782897949219	192.5248870849609	-806.1170043945315	21.34086990356446	243.4408111572265	-787.0876464843752	40.15068054199219	186.8780670166015	-835.505554199219	19.40515518188477	125.6973724365234	-1036.976318359375	858.0462646484377	406.3804321289062	-1010.622680664063	454.7477111816407	396.6603088378906	-969.0983886718752	447.279022216797	269.5549621582031	-1057.345581054688	428.2142944335939	401.7575988769531	-1012.401916503906	377.4491271972657	348.5990295410156	-1369.519287109375	245.4297027587891	350.9948120117186	-1322.70849609375	235.2966003417969	259.3389282226561	-1415.21875	266.6386413574219	287.9261474609374	-1343.929931640625	85.02950286865236	252.4552612304686	-1329.43359375	87.84339904785158	307.0667114257811	-1364.2265625	111.6262359619141	362.5790405273436	-1098.303588867188	1524.3486328125	217.0839385986327	-1202.990234375	1282.291625976563	222.6111297607421	-926.3449707031252	1244.011352539063	231.0075073242187	-974.3404541015627	1428.599975585938	231.6294403076171	-1216.653076171875	1309.55810546875	114.5578842163085	-1171.281127929688	1451.827758789063	111.609405517578	-1130.534912109375	1450.103637695313	49.32811737060535	-1081.331298828125	1444.938598632813	23.08162117004382	-1110.349243164063	1110.30908203125	-74.49237060546891	-1145.3671875	1096.538330078125	12.07919502258287	-1150.02001953125	1091.41015625	-44.76144409179702	-1033.541137695313	848.8433227539065	-39.22636032104506	-1105.041748046875	854.658874511719	-92.23281860351578	-1009.825805664063	763.9045410156251	-58.16168594360365	-1114.888916015625	771.4900512695315	-98.73749542236345	-1223.752807617188	1310.428100585938	334.9035339355468	-1169.398681640625	1454.012084960938	343.6339416503905	-1133.159545898438	1444.555786132813	412.6551818847656	-1087.207275390625	1442.11474609375	434.9686584472656	-1115.164916992188	1114.311279296875	535.1118774414062	-1131.107055664063	1092.209838867188	435.2159118652344	-1155.444580078125	1088.7822265625	502.4376220703125	-989.8599243164066	875.9341430664065	503.4081420898438	-1059.337768554688	870.3921508789065	565.0280151367188	-947.5659179687503	792.2606201171877	532.9815063476562	-1055.129272460938	774.7564086914065	567.6748046875	
